Coordinates
version=1
nRows=16
nColumns=63
inDegrees=yes

Units are S.I. units (second, meters, Newtons, ...)
If the header above contains a line with 'inDegrees', this indicates whether rotational values are in degrees (yes) or radians (no).

endheader
time	pelvis_tilt	pelvis_list	pelvis_rotation	pelvis_tx	pelvis_ty	pelvis_tz	hip_flexion_r	hip_adduction_r	hip_rotation_r	knee_angle_r	knee_angle_r_beta	ankle_angle_r	subtalar_angle_r	mtp_angle_r	hip_flexion_l	hip_adduction_l	hip_rotation_l	knee_angle_l	knee_angle_l_beta	ankle_angle_l	subtalar_angle_l	mtp_angle_l	L5_S1_Flex_Ext	L5_S1_Lat_Bending	L5_S1_axial_rotation	L4_L5_Flex_Ext	L4_L5_Lat_Bending	L4_L5_axial_rotation	L3_L4_Flex_Ext	L3_L4_Lat_Bending	L3_L4_axial_rotation	L2_L3_Flex_Ext	L2_L3_Lat_Bending	L2_L3_axial_rotation	L1_L2_Flex_Ext	L1_L2_Lat_Bending	L1_L2_axial_rotation	L1_T12_Flex_Ext	L1_T12_Lat_Bending	L1_T12_axial_rotation	Abs_r3	Abs_r2	Abs_r1	Abs_t1	Abs_t2	neck_flexion	neck_bending	neck_rotation	arm_flex_r	arm_add_r	arm_rot_r	elbow_flex_r	pro_sup_r	wrist_flex_r	wrist_dev_r	arm_flex_l	arm_add_l	arm_rot_l	elbow_flex_l	pro_sup_l	wrist_flex_l	wrist_dev_l
0.000000	3.321568	-3.873115	90.196641	0.324838	0.965462	0.387681	4.123196	9.066628	-6.570049	5.773333	0.100764	22.894729	-11.372397	0.000000	6.769354	-6.994615	5.901441	11.445955	0.199770	28.966380	-10.258594	0.000000	0.470556	0.889533	-0.045324	0.873870	1.183079	-0.048157	0.773077	2.162811	-0.048157	0.537799	2.162811	-0.039658	0.436958	1.813936	-0.036826	0.268876	1.377887	-0.033993	3.361136	10.062577	-0.252078	0.000000	0.000000	28.344929	0.491535	9.022795	8.929947	-13.176759	55.196616	49.070817	58.362950	8.939798	2.864921	15.418948	-6.633763	70.251651	47.778125	38.758022	-2.173600	11.093433
0.016949	3.396660	-3.797241	90.776327	0.323845	0.965973	0.387363	3.962587	9.125516	-7.040490	5.534118	0.096589	22.874857	-11.205519	0.000000	6.812717	-7.016176	6.157799	11.528229	0.201206	28.370487	-10.022692	0.000000	0.474229	0.910230	-0.193494	0.880690	1.210606	-0.205587	0.779110	2.213133	-0.205587	0.541996	2.213133	-0.169307	0.440369	1.856141	-0.157214	0.270974	1.409946	-0.145120	3.387367	10.296703	-1.076155	0.000000	0.000000	28.340894	0.818328	9.876832	8.411055	-13.528315	53.972658	49.778125	65.902484	9.823874	2.724941	16.566071	-7.028689	73.184820	47.935860	42.558501	-1.190242	7.865889
0.033898	3.428720	-3.723820	91.232277	0.323071	0.966383	0.387196	3.826895	9.146986	-7.356507	5.353208	0.093431	22.908161	-11.125798	0.000000	6.847889	-7.007816	6.306968	11.609654	0.202627	27.957393	-9.782015	0.000000	0.476875	0.923034	-0.304154	0.885605	1.227635	-0.323164	0.783459	2.244265	-0.323164	0.545021	2.244265	-0.266135	0.442827	1.882251	-0.247125	0.272487	1.429780	-0.228116	3.406274	10.441546	-1.691615	0.000000	0.000000	28.337058	0.995462	10.350565	7.996461	-13.811353	53.145481	50.222948	72.184993	10.517603	2.583706	17.468203	-7.260000	75.566406	47.911333	45.758189	-0.393367	5.202340
0.050847	3.421400	-3.653361	91.574928	0.322497	0.966701	0.387165	3.714496	9.133981	-7.535192	5.225563	0.091203	22.988540	-11.120299	0.000000	6.875854	-6.972194	6.359270	11.689695	0.204024	27.707294	-9.537869	0.000000	0.478590	0.928616	-0.380910	0.888789	1.235059	-0.404717	0.786275	2.257836	-0.404717	0.546981	2.257836	-0.333297	0.444419	1.893633	-0.309490	0.273466	1.438426	-0.285683	3.418520	10.504686	-2.118509	0.000000	0.000000	28.333438	1.040104	10.484614	7.681166	-14.031082	52.687107	50.431427	77.316011	11.029554	2.437104	18.149381	-7.347463	77.452257	47.726936	48.393520	0.232339	3.048341
0.067797	3.378351	-3.586372	91.814716	0.322105	0.966937	0.387254	3.623765	9.089443	-7.593637	5.146140	0.089817	23.109894	-11.176089	0.000000	6.897595	-6.911968	6.325029	11.767820	0.205387	27.600382	-9.291556	0.000000	0.479466	0.927645	-0.427368	0.890415	1.233768	-0.454078	0.787714	2.255475	-0.454078	0.547981	2.255475	-0.373947	0.445232	1.891653	-0.347236	0.273967	1.436922	-0.320526	3.424774	10.493703	-2.376891	0.000000	0.000000	28.330054	0.969423	10.319599	7.460169	-14.192708	52.569557	50.429700	81.401077	11.368293	2.281024	18.633645	-7.310846	78.898220	47.405062	50.500929	0.702194	1.349449
0.084746	3.303224	-3.523361	91.962078	0.321877	0.967100	0.387447	3.553077	9.016314	-7.548933	5.109898	0.089185	23.266120	-11.280233	0.000000	6.914096	-6.829796	6.214566	11.843494	0.206708	27.616851	-9.044380	0.000000	0.479595	0.920791	-0.447132	0.890657	1.224653	-0.475078	0.787927	2.238812	-0.475078	0.548130	2.238812	-0.391240	0.445352	1.877678	-0.363295	0.274041	1.426306	-0.335349	3.425702	10.416177	-2.486813	0.000000	0.000000	28.326920	0.800586	9.896141	7.328471	-14.301439	52.764851	50.243907	84.545725	11.542389	2.111355	18.945031	-7.169917	79.960142	46.968103	52.116851	1.031512	0.051218
0.101695	3.199672	-3.464837	92.027451	0.321796	0.967199	0.387730	3.500808	8.917535	-7.418171	5.111796	0.089218	23.451120	-11.419797	0.000000	6.926342	-6.728336	6.038204	11.916185	0.207977	27.736893	-8.797644	0.000000	0.479073	0.908726	-0.443808	0.889686	1.208605	-0.471546	0.787069	2.209476	-0.471546	0.547532	2.209476	-0.388332	0.444867	1.853074	-0.360594	0.273742	1.407616	-0.332856	3.421970	10.279689	-2.468327	0.000000	0.000000	28.324057	0.550762	9.254859	7.281071	-14.362483	53.245010	49.900188	86.855493	11.560407	1.923984	19.107576	-6.944442	80.693871	46.438452	53.277719	1.235609	-0.900795
0.118644	3.071344	-3.411308	92.021270	0.321842	0.967244	0.388086	3.465333	8.796049	-7.218444	5.146793	0.089828	23.658792	-11.581845	0.000000	6.935316	-6.610245	5.806266	11.985359	0.209184	27.940702	-8.552653	0.000000	0.477991	0.892118	-0.421002	0.887677	1.186517	-0.447315	0.785292	2.169096	-0.447315	0.546296	2.169096	-0.368377	0.443863	1.819207	-0.342064	0.273124	1.381891	-0.315751	3.414243	10.091818	-2.341487	0.000000	0.000000	28.321480	0.237117	8.436374	7.312968	-14.381048	53.982056	49.424683	88.435916	11.430916	1.714800	19.145320	-6.654189	81.155255	45.838502	54.019970	1.329803	-1.561035
0.135593	2.921893	-3.363282	91.953973	0.321999	0.967245	0.388501	3.445028	8.654797	-6.966841	5.209847	0.090929	23.883035	-11.753445	0.000000	6.942002	-6.478183	5.529075	12.050482	0.210321	28.208472	-8.310708	0.000000	0.476444	0.871638	-0.382319	0.884804	1.159279	-0.406214	0.782749	2.119301	-0.406214	0.544528	2.119301	-0.334529	0.442426	1.777444	-0.310634	0.272240	1.350167	-0.286739	3.403190	9.860144	-2.126344	0.000000	0.000000	28.319208	-0.123179	7.481304	7.419164	-14.362340	54.948009	48.843530	89.392531	11.162484	1.479692	19.082299	-6.318925	81.400139	45.190644	54.380036	1.329408	-1.983946
0.152542	2.754970	-3.321269	91.835995	0.322248	0.967211	0.388959	3.438268	8.496722	-6.680455	5.295917	0.092431	24.117749	-11.921660	0.000000	6.947383	-6.334806	5.216953	12.111021	0.211377	28.520396	-8.073115	0.000000	0.474524	0.847956	-0.331365	0.881238	1.127782	-0.352075	0.779595	2.061720	-0.352075	0.542333	2.061720	-0.289944	0.440643	1.729152	-0.269234	0.271143	1.313484	-0.248524	3.389476	9.592248	-1.842952	0.000000	0.000000	28.317257	-0.512959	6.430270	7.594656	-14.311567	56.114890	48.182869	89.830875	10.763676	1.214547	18.942551	-5.958418	81.484373	44.517273	54.394354	1.249740	-2.223972
0.169492	2.574227	-3.285776	91.677774	0.322571	0.967152	0.389444	3.443428	8.324765	-6.376376	5.399963	0.094247	24.356832	-12.073558	0.000000	6.952444	-6.182772	4.880223	12.166442	0.212344	28.856666	-7.841176	0.000000	0.472324	0.821742	-0.271745	0.877154	1.092917	-0.288729	0.775982	1.997983	-0.288729	0.539820	1.997983	-0.237777	0.438601	1.675696	-0.220793	0.269886	1.272878	-0.203809	3.373767	9.295710	-1.511363	0.000000	0.000000	28.315647	-0.915055	5.323893	7.834446	-14.233937	57.454721	47.468840	89.856482	10.243062	0.915254	18.750113	-5.592435	81.463802	43.840779	54.099356	1.106116	-2.335558
0.186441	2.367694	-3.259484	91.463410	0.323012	0.967078	0.389921	3.459515	8.122056	-6.224898	5.528831	0.096496	24.645442	-11.946724	0.000000	6.944640	-6.023174	4.424622	12.197151	0.212880	29.158065	-7.520345	0.000000	0.469967	0.791314	-0.210186	0.872776	1.052448	-0.223323	0.772109	1.924001	-0.223323	0.537126	1.924001	-0.183913	0.436412	1.613648	-0.170777	0.268539	1.225746	-0.157640	3.356930	8.951505	-1.168994	0.000000	0.000000	28.314491	-1.309726	4.292391	8.175531	-14.132377	59.128075	46.772509	89.854657	9.467756	0.451421	18.619515	-5.316424	81.597340	43.252782	54.005938	0.958965	-2.519976
0.203390	2.169093	-3.246183	91.252381	0.323437	0.967018	0.390393	3.486060	7.925098	-6.047360	5.644309	0.098512	24.894295	-11.830877	0.000000	6.954930	-5.872392	3.982871	12.232324	0.213494	29.423152	-7.198881	0.000000	0.468139	0.761912	-0.155386	0.869381	1.013343	-0.165097	0.769106	1.852513	-0.165097	0.535036	1.852513	-0.135963	0.434714	1.553691	-0.126251	0.267495	1.180202	-0.116539	3.343871	8.618903	-0.864209	0.000000	0.000000	28.314272	-1.661570	3.310964	8.624458	-14.026506	60.995210	46.066647	89.411579	8.559218	-0.055647	18.424917	-5.084583	81.608666	42.706739	53.540044	0.857641	-2.689473
0.220339	1.972873	-3.240159	91.048766	0.323850	0.966970	0.390823	3.516805	7.731174	-5.834170	5.753221	0.100413	25.102230	-11.780438	0.000000	6.969094	-5.718425	3.616880	12.263819	0.214044	29.625837	-6.960073	0.000000	0.466947	0.732716	-0.095074	0.867167	0.974512	-0.101016	0.767147	1.781525	-0.101016	0.533673	1.781525	-0.083189	0.433607	1.494154	-0.077247	0.266813	1.134976	-0.071305	3.335354	8.288625	-0.528770	0.000000	0.000000	28.315315	-1.982205	2.365598	9.013481	-13.890907	62.589883	45.401053	89.053529	7.733441	-0.549438	18.312975	-4.907572	81.913949	42.240601	52.259906	0.651912	-2.977803
0.237288	1.787004	-3.239834	90.883326	0.324203	0.966938	0.391198	3.547657	7.544402	-5.652950	5.851853	0.102134	25.259739	-11.751173	0.000000	6.990463	-5.563455	3.378629	12.293470	0.214562	29.767048	-6.820567	0.000000	0.465678	0.705293	-0.046920	0.864810	0.938040	-0.049853	0.765062	1.714850	-0.049853	0.532223	1.714850	-0.041055	0.432428	1.438234	-0.038123	0.266088	1.092499	-0.035190	3.326288	7.978419	-0.260956	0.000000	0.000000	28.317099	-2.202107	1.569420	9.424768	-13.758734	64.163085	44.799518	88.653276	6.854962	-1.047532	18.221289	-4.792033	82.296935	41.849120	50.611224	0.457182	-3.350748
0.254237	1.609788	-3.247553	90.738423	0.324514	0.966916	0.391516	3.581290	7.365330	-5.472543	5.945899	0.103776	25.354224	-11.771678	0.000000	7.015911	-5.405690	3.256422	12.317574	0.214982	29.854305	-6.799463	0.000000	0.464571	0.679574	-0.007578	0.862755	0.903833	-0.008051	0.763244	1.652316	-0.008051	0.530958	1.652316	-0.006631	0.431401	1.385787	-0.006157	0.265456	1.052660	-0.005683	3.318385	7.687475	-0.042146	0.000000	0.000000	28.319169	-2.328428	0.910003	9.821680	-13.618001	65.589260	44.280776	88.531720	6.039095	-1.530521	18.166817	-4.734418	82.740003	41.533830	48.832660	0.310165	-3.735782
